<?xml version="1.0" standalone="no"?>
<!DOCTYPE svg PUBLIC "-//W3C//DTD SVG 20010904//EN"
 "http://www.w3.org/TR/2001/REC-SVG-20010904/DTD/svg10.dtd">
<svg version="1.0" xmlns="http://www.w3.org/2000/svg"
 width="1280.000000pt" height="512.000000pt" viewBox="0 0 1280.000000 512.000000"
 preserveAspectRatio="xMidYMid meet">
<metadata>
Created by potrace 1.15, written by Peter Selinger 2001-2017
</metadata>
<g transform="translate(0.000000,512.000000) scale(0.100000,-0.100000)"
fill="#000000" stroke="none">
<path d="M3590 4418 c-225 -10 -723 -75 -762 -99 -11 -7 -13 -348 -13 -1748 0
-1727 0 -1741 20 -1759 17 -16 61 -24 270 -46 330 -34 500 -46 671 -46 627 0
969 197 1160 669 76 186 117 376 150 681 21 191 24 725 5 905 -75 727 -279
1120 -686 1321 -214 105 -441 139 -815 122z m356 -1077 c56 -34 94 -121 113
-261 31 -215 40 -594 21 -850 -26 -352 -71 -459 -203 -475 -101 -13 -91 -45
-98 335 -3 184 -4 545 -1 803 l5 467 66 0 c47 0 75 -6 97 -19z"/>
<path d="M8845 4399 c-144 -12 -390 -44 -541 -71 l-121 -21 -7 -884 c-10
-1127 2 -2666 19 -2690 11 -15 45 -18 281 -25 148 -4 361 -4 474 0 l205 7 -4
422 -3 423 113 0 c192 1 414 38 559 95 327 128 520 401 594 840 62 367 41 883
-49 1224 -53 199 -104 290 -235 421 -144 145 -273 203 -550 245 -127 20 -573
28 -735 14z m525 -1047 c68 -34 90 -117 90 -347 0 -219 -25 -338 -83 -392 -47
-45 -68 -53 -157 -60 l-80 -6 0 412 0 411 98 0 c72 0 106 -4 132 -18z"/>
<path d="M683 4383 c-39 -5 -33 13 -73 -233 -16 -102 -70 -432 -120 -735 -237
-1439 -411 -2606 -395 -2656 4 -11 18 -22 33 -26 42 -12 889 -10 901 2 5 6 28
143 51 305 22 162 43 310 46 327 l5 33 224 0 223 0 7 -52 c20 -160 76 -528 85
-560 6 -21 21 -43 33 -50 17 -10 126 -13 464 -13 243 0 445 4 449 8 23 23
-120 993 -381 2577 -84 514 -157 957 -161 983 -3 26 -14 58 -24 70 l-18 22
-659 1 c-362 1 -673 -1 -690 -3z m742 -1683 c25 -234 49 -444 52 -467 l6 -43
-138 0 -137 0 6 48 c3 26 28 306 56 622 27 316 53 595 56 620 8 49 10 37 99
-780z"/>
<path d="M10653 4372 l-121 -3 -7 -63 c-4 -34 -5 -257 -3 -493 3 -398 4 -432
21 -451 17 -18 37 -20 291 -27 l273 -7 6 -1062 c8 -1213 14 -1508 32 -1533 11
-15 46 -19 271 -26 146 -5 352 -5 473 -1 l214 9 3 45 c1 25 6 611 10 1303 l7
1257 121 0 c67 0 199 3 294 7 l173 6 -3 504 c-3 465 -4 506 -20 517 -27 20
-359 27 -1178 24 -404 -1 -790 -4 -857 -6z"/>
<path d="M6060 4273 c-106 -39 -206 -184 -246 -358 -26 -113 -25 -326 3 -455
51 -239 185 -446 330 -513 65 -29 170 -30 233 -1 96 44 186 173 227 324 14 51
18 104 18 245 0 193 -14 276 -70 413 -61 149 -171 285 -270 331 -65 31 -163
37 -225 14z"/>
<path d="M7135 4267 c-191 -63 -343 -271 -415 -567 -31 -127 -35 -360 -6 -460
39 -139 98 -226 187 -275 47 -26 64 -30 129 -30 96 0 167 32 251 112 342 326
374 1054 54 1208 -49 23 -147 29 -200 12z"/>
<path d="M5353 3491 c-23 -11 -63 -39 -88 -62 -212 -196 -168 -691 85 -962
179 -191 381 -216 527 -65 204 211 145 704 -116 968 -92 93 -177 134 -286 138
-63 2 -89 -2 -122 -17z"/>
<path d="M7750 3439 c-260 -51 -480 -393 -480 -746 0 -205 71 -351 205 -421
42 -22 63 -27 130 -27 107 0 184 35 286 133 280 266 342 784 118 986 -73 66
-167 93 -259 75z"/>
<path d="M6510 2815 c-88 -20 -209 -80 -306 -153 -339 -252 -697 -799 -790
-1207 -26 -115 -24 -253 5 -328 31 -78 107 -154 203 -201 192 -95 393 -87 802
30 216 61 242 66 307 50 30 -7 120 -41 200 -74 230 -97 351 -104 506 -27 99
49 222 165 263 249 81 165 33 435 -139 782 -184 371 -441 675 -691 817 -110
63 -249 87 -360 62z m-207 -386 c32 -28 48 -51 53 -75 8 -42 50 -69 93 -59 20
4 32 0 46 -15 l18 -20 23 21 c27 26 87 40 136 32 l37 -5 -6 -52 c-7 -73 -22
-126 -34 -126 -6 0 -9 -7 -6 -15 4 -8 2 -17 -4 -20 -5 -4 -7 -10 -4 -15 7 -11
-43 -110 -56 -110 -5 0 -9 -6 -9 -14 0 -8 -11 -17 -25 -20 -14 -4 -25 -11 -25
-17 0 -8 54 -10 174 -7 l173 3 43 43 c47 47 94 56 122 25 23 -26 49 -93 36
-93 -6 0 -8 -10 -4 -26 6 -23 4 -25 -15 -19 -15 5 -19 4 -14 -4 4 -7 2 -18 -4
-25 -8 -10 -6 -18 9 -31 11 -10 17 -21 14 -26 -2 -4 10 -16 28 -26 25 -13 29
-18 16 -21 -20 -4 -24 -22 -5 -22 7 0 8 -3 2 -8 -17 -12 -10 -49 18 -92 29
-46 29 -94 -1 -83 -11 5 -13 3 -7 -7 5 -8 9 -26 10 -42 2 -24 -1 -27 -17 -22
-18 5 -18 4 2 -37 17 -33 19 -41 7 -36 -21 8 -37 -14 -30 -41 3 -14 1 -22 -7
-22 -8 0 -11 -9 -7 -29 5 -25 3 -30 -21 -37 -15 -4 -33 -6 -39 -5 -8 1 -13
-10 -13 -27 0 -32 -14 -49 -45 -52 -72 -8 -103 13 -71 49 29 32 37 81 23 136
-7 29 -18 49 -25 48 -7 -2 -12 2 -12 7 0 6 -7 10 -15 10 -8 0 -15 4 -15 9 0 5
-9 7 -20 4 -11 -3 -20 -9 -20 -14 0 -5 -3 -8 -7 -8 -23 4 -33 -3 -33 -21 0
-13 -5 -18 -15 -14 -12 5 -15 -3 -15 -40 0 -28 -4 -46 -12 -46 -6 0 -28 -18
-48 -40 -29 -32 -44 -40 -71 -40 -84 0 -99 23 -48 71 28 26 29 30 15 45 -15
14 -17 14 -22 0 -3 -9 -9 -14 -14 -11 -4 2 -13 -7 -20 -20 -7 -14 -17 -25 -22
-25 -4 0 -8 -18 -8 -40 0 -22 -4 -40 -10 -40 -5 0 -7 -6 -4 -13 8 -21 -139
-62 -180 -50 -28 8 -31 13 -34 52 -2 32 2 49 17 65 28 30 38 76 17 76 -9 0
-16 7 -16 15 0 8 -5 15 -10 15 -6 0 -8 11 -4 28 7 25 6 26 -10 12 -16 -13 -18
-12 -16 15 4 59 1 69 -15 55 -12 -10 -15 -10 -15 4 0 9 -4 16 -10 16 -5 0 -7
13 -3 30 5 25 3 29 -11 24 -11 -4 -16 -1 -16 10 0 10 -5 13 -17 9 -12 -5 -14
-3 -8 7 6 10 4 12 -8 7 -21 -8 -31 39 -22 99 4 30 3 44 -5 44 -7 0 2 19 19 42
22 30 28 44 19 49 -9 6 -6 15 11 33 20 21 22 31 16 74 -5 37 -12 51 -25 55
-13 3 -20 18 -25 51 -4 25 -12 46 -17 46 -5 0 0 15 11 34 25 40 26 47 6 40
-19 -8 -19 5 0 30 20 26 19 36 -2 36 -14 1 -9 8 17 32 20 19 29 33 22 36 -14
4 -17 42 -3 42 5 0 6 21 3 46 -4 43 -2 48 39 90 24 24 46 44 50 44 3 0 27 -18
52 -41z"/>
</g>
</svg>
